<?xml version="1.0" encoding="UTF-8"?>
<svg xmlns="http://www.w3.org/2000/svg" width="1080" height="1920" viewBox="0 0 1080 1920" role="img" aria-labelledby="title desc">
  <title id="title">Когда нужен человек — подключается продавец</title>
  <desc id="desc">Вертикальный storyboard передачи вопроса продавцу.</desc>
  <rect width="1080" height="1920" rx="36" fill="#f7f1e7"/>
  <circle cx="963" cy="99" r="18" fill="#0f6b66"/>
  <path d="M81 133h84a28 28 0 0 1 28 28v84a28 28 0 0 1-28 28H81z" fill="#123b3a"/>
  <path d="M108 172h58M108 199h42M108 226h53" stroke="#f7f1e7" stroke-width="12" stroke-linecap="round"/>
  <text x="221" y="197" font-family="Arial, Helvetica, sans-serif" font-size="24" font-weight="700" fill="#0f6b66"><tspan x="221" dy="0">СЦЕНАРИЙ • ЧЕЛОВЕК РЯДОМ</tspan></text>
  <text x="81" y="390" font-family="Arial, Helvetica, sans-serif" font-size="64" font-weight="700" fill="#123b3a"><tspan x="81" dy="0">Когда нужен человек —</tspan><tspan x="81" dy="74">подключается продавец</tspan></text>
  <text x="81" y="578" font-family="Arial, Helvetica, sans-serif" font-size="34" font-weight="400" fill="#315956"><tspan x="81" dy="0">GPTBot передаёт вопрос. Продавец уточняет</tspan><tspan x="81" dy="48">товар, доставку и оплату.</tspan></text>
  <circle cx="94" cy="724" r="10" fill="#0f6b66"/><text x="123" y="734" font-family="Arial, Helvetica, sans-serif" font-size="30" font-weight="600" fill="#123b3a"><tspan x="123" dy="0">Без автоплатежа</tspan></text><circle cx="94" cy="824" r="10" fill="#0f6b66"/><text x="123" y="834" font-family="Arial, Helvetica, sans-serif" font-size="30" font-weight="600" fill="#123b3a"><tspan x="123" dy="0">Без выдуманного срока ответа</tspan></text><circle cx="94" cy="924" r="10" fill="#0f6b66"/><text x="123" y="934" font-family="Arial, Helvetica, sans-serif" font-size="30" font-weight="600" fill="#123b3a"><tspan x="123" dy="0">Понятный следующий шаг</tspan></text>
  <rect x="81" y="1680" width="510" height="92" rx="46" fill="#123b3a"/>
  <text x="125" y="1739" font-family="Arial, Helvetica, sans-serif" font-size="27" font-weight="700" fill="#ffffff"><tspan x="125" dy="0">Задать вопрос</tspan></text>
  <line x1="81" y1="1771" x2="999" y2="1771" stroke="#d8cfc1" stroke-width="2"/>
  <text x="81" y="1815" font-family="Arial, Helvetica, sans-serif" font-size="18" font-weight="700" fill="#5b7774"><tspan x="81" dy="0">GPTBot Market  •  SYNTHETIC / TEMPLATE</tspan></text>
</svg>